<?xml version="1.0" encoding="iso-8859-1"?>
<!-- Generator: Adobe Illustrator 19.0.0, SVG Export Plug-In . SVG Version: 6.00 Build 0)  -->
<svg version="1.1" id="Capa_1" xmlns="http://www.w3.org/2000/svg" xmlns:xlink="http://www.w3.org/1999/xlink" x="0px" y="0px"
	 viewBox="0 0 512 512" style="enable-background:new 0 0 512 512;" xml:space="preserve">
<g>
	<rect x="236.438" y="319.747" style="fill:#F37121;" width="32.042" height="192.25"/>
	<rect x="332.563" y="319.747" style="fill:#F37121;" width="32.042" height="192.25"/>
	<rect x="140.313" y="319.747" style="fill:#F37121;" width="32.042" height="192.25"/>
</g>
<g>
	<path style="fill:#B07C64;" d="M252.463,271.687c-4.424,0-8.01-3.587-8.01-8.01v-32.042c0-4.424,3.587-8.01,8.01-8.01
		c4.424,0,8.01,3.587,8.01,8.01v32.042C260.473,268.1,256.888,271.687,252.463,271.687z"/>
	<path style="fill:#B07C64;" d="M367.806,295.72c-1.273,0-2.562-0.304-3.763-0.944c-3.903-2.082-5.381-6.934-3.298-10.837
		l12.817-24.031c2.082-3.904,6.933-5.381,10.837-3.298c3.903,2.082,5.381,6.934,3.298,10.837l-12.817,24.031
		C373.44,294.18,370.669,295.72,367.806,295.72z"/>
	<path style="fill:#B07C64;" d="M137.12,295.72c-2.864,0-5.633-1.54-7.074-4.243l-12.817-24.031
		c-2.083-3.903-0.605-8.755,3.298-10.837c3.902-2.081,8.756-0.605,10.837,3.298l12.817,24.031c2.083,3.903,0.605,8.755-3.298,10.837
		C139.682,295.417,138.392,295.72,137.12,295.72z"/>
	<path style="fill:#B07C64;" d="M454.233,375.824c-2.505,0-4.972-1.172-6.535-3.369c-2.564-3.606-1.719-8.606,1.885-11.17
		l22.529-16.021c3.606-2.563,8.606-1.721,11.171,1.886c2.564,3.606,1.719,8.606-1.885,11.17l-22.529,16.021
		C457.46,375.342,455.839,375.824,454.233,375.824z"/>
	<path style="fill:#B07C64;" d="M50.693,375.824c-1.606,0-3.227-0.482-4.635-1.483L23.529,358.32
		c-3.606-2.564-4.45-7.565-1.885-11.17c2.563-3.606,7.565-4.449,11.171-1.886l22.529,16.021c3.606,2.564,4.45,7.565,1.885,11.17
		C55.667,374.652,53.198,375.824,50.693,375.824z"/>
</g>
<path style="fill:#6B270F;" d="M492.841,383.831c-2.861,0-5.629-1.537-7.072-4.236c-46.126-86.323-135.524-139.948-233.306-139.948
	c-97.732,0-187.109,53.585-233.25,139.843c-2.087,3.901-6.942,5.373-10.842,3.284c-3.901-2.087-5.372-6.941-3.285-10.841
	c48.935-91.479,143.723-148.307,247.377-148.307c103.706,0,198.519,56.871,247.436,148.418
	C502.693,377.271,498.803,383.831,492.841,383.831z"/>
<path style="fill:#C7D450;" d="M427.939,328.286c-46.888-46.829-109.206-72.619-175.477-72.619s-128.588,25.791-175.477,72.619
	C30.103,375.111,4.234,437.388,4.144,503.645c-0.003,2.126,0.84,4.166,2.342,5.671c1.502,1.504,3.542,2.35,5.668,2.35h56.073
	c4.419,0,8.002-3.578,8.01-7.995c0.172-96.997,79.226-175.91,176.226-175.91s176.053,78.913,176.226,175.91
	c0.008,4.418,3.592,7.995,8.01,7.995h56.073c2.127,0,4.165-0.846,5.668-2.35c1.502-1.505,2.345-3.546,2.342-5.671
	C500.692,437.388,474.823,375.111,427.939,328.286z"/>
<g>
	<path style="fill:#839A30;" d="M460.734,512c-4.424,0-8.01-3.587-8.01-8.01c0-35.208-9.262-69.829-26.785-100.121
		c-2.215-3.829-0.906-8.73,2.923-10.945c3.828-2.216,8.729-0.907,10.945,2.923c18.932,32.728,28.938,70.122,28.938,108.144
		C468.745,508.413,465.159,512,460.734,512z"/>
	<path style="fill:#839A30;" d="M44.192,512c-4.424,0-8.01-3.587-8.01-8.01c0-57.77,22.497-112.084,63.348-152.934
		s95.164-63.348,152.934-63.348c64.466,0,125.104,28.456,166.367,78.071c2.829,3.4,2.364,8.451-1.037,11.281
		c-3.4,2.83-8.452,2.364-11.281-1.036c-38.209-45.944-94.358-72.293-154.049-72.293c-110.424,0-200.261,89.837-200.261,200.261
		C52.202,508.413,48.616,512,44.192,512z"/>
</g>
<path style="fill:#FFD74A;" d="M228.432,127.499h-16.021c-4.424,0-8.01,3.587-8.01,8.01v32.042c0,4.424,3.587,8.01,8.01,8.01h16.021
	c4.424,0,8.01-3.587,8.01-8.01V135.51C236.442,131.087,232.856,127.499,228.432,127.499z"/>
<path style="fill:#ED3124;" d="M292.515,127.499h-16.021c-4.424,0-8.01,3.587-8.01,8.01v24.031h-48.063V135.51
	c0-4.424-3.587-8.01-8.01-8.01h-32.042c-4.424,0-8.01,3.587-8.01,8.01v40.052c0,22.085,17.967,40.052,40.052,40.052h112.146
	c4.424,0,8.01-3.587,8.01-8.01v-40.052C332.567,145.467,314.6,127.499,292.515,127.499z"/>
<path style="fill:#D32C27;" d="M212.411,199.593c-13.272,0-24.031-10.759-24.031-24.031v-48.063h-8.01
	c-4.424,0-8.01,3.587-8.01,8.01v40.052c0,22.085,17.967,40.052,40.052,40.052h112.146c4.424,0,8.01-3.587,8.01-8.01v-8.01H212.411z"
	/>
<g>
	<path style="fill:#961C1E;" d="M253.464,199.593h-1.001c-4.424,0-8.01-3.587-8.01-8.01s3.587-8.01,8.01-8.01h1.001
		c4.424,0,8.01,3.587,8.01,8.01S257.889,199.593,253.464,199.593z"/>
	<path style="fill:#961C1E;" d="M277.496,199.593h-1.001c-4.424,0-8.01-3.587-8.01-8.01s3.587-8.01,8.01-8.01h1.001
		c4.424,0,8.01,3.587,8.01,8.01S281.92,199.593,277.496,199.593z"/>
	<path style="fill:#961C1E;" d="M229.433,199.593h-1.001c-4.424,0-8.01-3.587-8.01-8.01s3.587-8.01,8.01-8.01h1.001
		c4.424,0,8.01,3.587,8.01,8.01S233.858,199.593,229.433,199.593z"/>
</g>
<path style="fill:#FFD74A;" d="M49.791,186.553l-14.12,7.569c-3.899,2.09-5.366,6.946-3.275,10.844l15.138,28.24
	c2.09,3.899,6.945,5.366,10.844,3.275l14.12-7.569c3.899-2.09,5.366-6.946,3.275-10.844l-15.138-28.24
	C58.546,185.929,53.691,184.463,49.791,186.553z"/>
<path style="fill:#ED3124;" d="M106.271,156.277l-14.12,7.569c-3.899,2.09-5.366,6.946-3.275,10.844l11.354,21.181l-42.36,22.707
	l-11.354-21.18c-2.09-3.899-6.945-5.366-10.844-3.275L7.431,209.26c-3.899,2.09-5.366,6.946-3.275,10.844l18.923,35.3
	c10.434,19.464,34.758,26.812,54.223,16.377l98.841-52.983c3.899-2.09,5.366-6.946,3.275-10.844l-18.923-35.3
	C150.062,153.191,125.737,145.843,106.271,156.277z"/>
<path style="fill:#D32C27;" d="M69.732,257.663c-11.697,6.27-26.263,1.87-32.533-9.827l-22.707-42.36l-7.06,3.785
	c-3.899,2.09-5.366,6.946-3.275,10.844l18.923,35.3c10.434,19.464,34.758,26.812,54.223,16.377l98.841-52.983
	c3.899-2.09,5.366-6.946,3.275-10.844l-3.785-7.06L69.732,257.663z"/>
<g>
	<path style="fill:#961C1E;" d="M101.255,239.692c-2.857,0-5.621-1.532-7.066-4.227c-2.091-3.899-0.626-8.754,3.274-10.845
		l0.882-0.474c3.897-2.092,8.753-0.626,10.845,3.273c2.091,3.899,0.626,8.754-3.274,10.845l-0.882,0.474
		C103.828,239.386,102.533,239.692,101.255,239.692z"/>
	<path style="fill:#961C1E;" d="M122.435,228.339c-2.857,0-5.621-1.532-7.066-4.227c-2.091-3.899-0.626-8.754,3.274-10.845
		l0.882-0.474c3.897-2.091,8.754-0.626,10.845,3.273c2.091,3.899,0.626,8.754-3.274,10.845l-0.882,0.474
		C125.009,228.032,123.713,228.339,122.435,228.339z"/>
	<path style="fill:#961C1E;" d="M80.074,251.046c-2.857,0-5.621-1.532-7.066-4.227c-2.091-3.899-0.626-8.754,3.274-10.845
		l0.882-0.474c3.897-2.092,8.753-0.626,10.845,3.273c2.091,3.899,0.626,8.754-3.274,10.845l-0.882,0.474
		C82.649,250.74,81.353,251.046,80.074,251.046z"/>
</g>
<path style="fill:#ECF0F0;" d="M172.359,31.374c-2.81,0-5.504,0.487-8.01,1.373v-9.383C164.348,10.461,153.888,0,140.985,0
	s-23.363,10.461-23.363,23.363c0,2.916,0.539,5.704,1.514,8.278c-0.926-0.166-1.875-0.267-2.85-0.267
	c-8.849,0-16.021,7.173-16.021,16.021h-8.01c-8.849,0-16.021,7.173-16.021,16.021s7.172,16.021,16.021,16.021h80.104
	c13.272,0,24.031-10.759,24.031-24.031S185.631,31.374,172.359,31.374z"/>
<path style="fill:#D8E0E0;" d="M180.369,70.759h-80.104c-8.849,0-16.021-7.173-16.021-16.021c0-2.03,0.393-3.963,1.081-5.75
	c-5.373,2.586-9.092,8.066-9.092,14.428c0,8.848,7.172,16.021,16.021,16.021h80.104c9.127,0,17.064-5.088,21.134-12.58
	C189.718,69.321,185.213,70.759,180.369,70.759z"/>
<path style="fill:#ECF0F0;" d="M484.766,158.874c-2.81,0-5.504,0.487-8.01,1.373v-9.383c0-12.904-10.461-23.363-23.363-23.363
	c-12.904,0-23.363,10.461-23.363,23.363c0,2.916,0.539,5.704,1.514,8.278c-0.926-0.166-1.875-0.267-2.85-0.267
	c-8.849,0-16.021,7.173-16.021,16.021h-8.01c-8.849,0-16.021,7.173-16.021,16.021s7.172,16.021,16.021,16.021h80.104
	c13.272,0,24.031-10.759,24.031-24.031S498.038,158.874,484.766,158.874z"/>
<path style="fill:#D8E0E0;" d="M492.776,199.593h-80.104c-8.849,0-16.021-7.173-16.021-16.021c0-2.688,0.67-5.218,1.84-7.443
	c-5.785,2.417-9.851,8.126-9.851,14.786c0,8.848,7.172,16.021,16.021,16.021h80.104c8.231,0,15.492-4.14,19.824-10.45
	C501.1,198.462,497.072,199.593,492.776,199.593z"/>
<g>
</g>
<g>
</g>
<g>
</g>
<g>
</g>
<g>
</g>
<g>
</g>
<g>
</g>
<g>
</g>
<g>
</g>
<g>
</g>
<g>
</g>
<g>
</g>
<g>
</g>
<g>
</g>
<g>
</g>
</svg>
