<svg height="512pt" viewBox="0 0 512 512" width="512pt" xmlns="http://www.w3.org/2000/svg"><path d="m271 437c0 8.398438-6.597656 15-15 15h-180c-8.402344 0-15-6.601562-15-15 0-8.402344 6.597656-15 15-15h180c8.402344 0 15 6.597656 15 15zm0 0" fill="#c5d3dd"/><path d="m271 437c0 8.398438-6.597656 15-15 15h-90v-30h90c8.402344 0 15 6.597656 15 15zm0 0" fill="#9facba"/><path d="m45.984375 512c-2.253906 0-4.539063-.511719-6.695313-1.582031-7.410156-3.707031-10.414062-12.714844-6.707031-20.128907l60-120c3.722657-7.410156 12.714844-10.398437 20.128907-6.707031 7.410156 3.707031 10.414062 12.714844 6.707031 20.128907l-60 120c-2.636719 5.257812-7.925781 8.289062-13.433594 8.289062zm0 0" fill="#deecf1"/><path d="m286.015625 512c-5.507813 0-10.796875-3.03125-13.433594-8.289062l-60-120c-3.707031-7.414063-.703125-16.421876 6.707031-20.128907 7.398438-3.691406 16.40625-.703125 20.128907 6.707031l60 120c3.707031 7.414063.703125 16.421876-6.707031 20.128907-2.15625 1.070312-4.441407 1.582031-6.695313 1.582031zm0 0" fill="#c5d3dd"/><path d="m512 422-13.75 30-16.25-30v-362l17.5-30 12.5 30zm0 0" fill="#3e5959"/><path d="m391 211c16.539062 0 30-13.460938 30-30s-13.460938-30-30-30-30 13.460938-30 30 13.460938 30 30 30zm0 0" fill="#e63950"/><path d="m391 422c16.539062 0 30-13.460938 30-30v-151c0-16.539062-13.460938-30-30-30s-30 13.460938-30 30v151c0 16.539062 13.460938 30 30 30zm0 0" fill="#e63950"/><path d="m512 497h-151v-60c0-8.285156 6.714844-15 15-15h136zm0 0" fill="#3e5959"/><path d="m512 60h-136c-8.285156 0-15-6.714844-15-15 0-24.851562 20.148438-45 45-45h91c8.285156 0 15 6.714844 15 15zm0 0" fill="#00c0f1"/><path d="m512 497c0 8.398438-6.597656 15-15 15h-482c-8.402344 0-15-6.601562-15-15 0-8.402344 6.597656-15 15-15h482c8.402344 0 15 6.597656 15 15zm0 0" fill="#c5d3dd"/><path d="m512 497c0 8.398438-6.597656 15-15 15h-331v-30h331c8.402344 0 15 6.597656 15 15zm0 0" fill="#9facba"/><path d="m331 241v105c0 24.898438-20.097656 46-45 46h-240c-24.902344 0-46-21.101562-46-46v-105l40.902344-30h251.398437zm0 0" fill="#25d9f8"/><path d="m329.5 91-38.402344 30h-258.898437l-30.699219-30c6.902344-34.199219 38.199219-61 74.5-61h180c36.300781 0 66.597656 26.800781 73.5 61zm0 0" fill="#25d9f8"/><path d="m291.097656 121h-125.097656v-91h90c36.300781 0 66.597656 26.800781 73.5 61zm0 0" fill="#00c0f1"/><path d="m331 241v105c0 24.898438-20.097656 46-45 46h-120v-181h126.300781zm0 0" fill="#00c0f1"/><path d="m331 121-37.5 60 37.5 30v30h-331v-30l46-30-46-60v-15c0-5.097656.601562-10.199219 1.5-15h328c.898438 4.800781 1.5 9.902344 1.5 15zm0 0" fill="#537983"/><path d="m331 121-37.5 60 37.5 30v30h-165v-150h163.5c.898438 4.800781 1.5 9.902344 1.5 15zm0 0" fill="#3e5959"/><path d="m90.972656 301c0 8.285156-6.71875 15-15 15-8.285156 0-15-6.714844-15-15s6.714844-15 15-15c8.28125 0 15 6.714844 15 15zm0 0" fill="#deecf1"/><path d="m270.972656 301c0 8.285156-6.71875 15-15 15-8.285156 0-15-6.714844-15-15s6.714844-15 15-15c8.28125 0 15 6.714844 15 15zm0 0" fill="#c5d3dd"/><path d="m211 301c0 8.398438-6.597656 15-15 15h-60c-8.402344 0-15-6.601562-15-15 0-8.402344 6.597656-15 15-15h60c8.402344 0 15 6.597656 15 15zm0 0" fill="#537983"/><path d="m226 121-60 80.097656-7.5 9.902344h-52.5l60-80.101562 7.5-9.898438zm0 0" fill="#deecf1"/><path d="m136.007812 121h-136.007812v90h68.507812zm0 0" fill="#deecf1"/><path d="m263.492188 121-67.5 90h135.007812v-90zm0 0" fill="#c5d3dd"/><path d="m211 301c0 8.398438-6.597656 15-15 15h-30v-30h30c8.402344 0 15 6.597656 15 15zm0 0" fill="#3e5959"/><path d="m226 121-60 80.097656v-70.199218l7.5-9.898438zm0 0" fill="#c5d3dd"/></svg>